# xmcd
#
# Track frame offsets:
#	183
#	15898
#	32615
#	52605
#	69410
#	91558
#	112625
#
# Disc length: 1724 seconds
#
# Revision: 1
# Processed by: cddbd v1.4PL0 Copyright (c) Steve Scherf et al.
# Submitted via: audiograbber 1.81.02
#
DISCID=3506ba07
DTITLE=Bob Savenberg - Graag Traag!
DYEAR=1900
DGENRE=Pop
TTITLE0=Hallo
TTITLE1=Kwaliteiten
TTITLE2=September
TTITLE3=Bredero
TTITLE4=Zie je me nog graag
TTITLE5=Alleen maar een droom
TTITLE6=Romeo's lied
EXTD=
EXTT0=
EXTT1=
EXTT2=
EXTT3=
EXTT4=
EXTT5=
EXTT6=
PLAYORDER=
